<svg xmlns="http://www.w3.org/2000/svg" viewBox="0 0 500 500"><path d="M0 250.002v250.002l250.25-.252 250.25-.252.252-249.75L501.004 0H0v250.002m.492.498c0 137.5.116 193.601.258 124.67.142-68.932.142-181.432 0-250C.608 56.601.492 113 .492 250.5M250 194v7h181v-14H250v7m-65.345 18.459c-17.952 6.4-15.064 33.163 3.808 35.29 10.895 1.228 20.537-6.856 20.537-17.217V227h-20v6.9l5.75.3 5.75.3-2.705 2.75c-6.669 6.781-17.492 1.354-16.564-8.306.566-5.883 2.752-8.663 7.518-9.557 3.639-.682 10.251 1.637 10.251 3.597 0 .559 2.025 1.016 4.5 1.016 5.733 0 5.922-1.814.727-7.008-5.569-5.57-12.296-7.128-19.572-4.533m168.468-.494c-16.213 4.006-18.021 27.18-2.664 34.155 12.887 5.854 26.541-2.755 26.541-16.735 0-12.289-11.295-20.529-23.877-17.42m46.19.086c-11.583 3.537-9.252 16.906 3.59 20.586 6.234 1.787 8.097 2.939 8.097 5.007 0 3.837-9.726 4.119-10.722.31-.408-1.558-1.386-1.954-4.825-1.954h-4.313l.888 3.097c3.798 13.244 26.972 11.368 26.972-2.183 0-4.853-3.264-8.006-10.682-10.322-8.804-2.749-10.849-5.482-5.818-7.774 2.988-1.362 7.5.239 7.5 2.661 0 1.136 1.138 1.521 4.5 1.521 5.086 0 4.998.128 3.084-4.454-2.463-5.893-10.678-8.813-18.271-6.495m-306.637.664c-.595.963-7.828 19.023-11.228 28.035L79.09 247h4.507c4.109 0 4.599-.265 5.553-3 1.021-2.93 1.202-3 7.729-3 6.507 0 6.712.079 7.815 3 1.025 2.717 1.554 3 5.599 3h4.467l-6.767-17.25-6.767-17.25-4.021-.303c-2.212-.167-4.25.066-4.529.518M129 229.5V247h9v-5.57c0-7.556 3.003-7.426 7.417.32 2.961 5.198 3.039 5.25 7.829 5.25h4.838l-2.706-4.75c-1.489-2.613-3.066-5.16-3.504-5.662-.439-.501.535-2.429 2.164-4.284 1.629-1.856 3.012-4.37 3.073-5.589.564-11.286-3.882-14.715-19.079-14.715H129v17.5m93-16.937c0 .31 2.7 5.385 6 11.278 5.543 9.897 6 11.188 6 16.937V247h9v-6.425c0-6.012.386-7.105 6-16.994 7.156-12.605 7.017-11.581 1.57-11.581h-4.429l-3.758 6.957-3.757 6.957-1.764-2.9c-.969-1.594-2.694-4.725-3.833-6.957-1.954-3.831-2.319-4.057-6.549-4.057-2.464 0-4.48.253-4.48.563m48 16.937V247h7.895l.303-5.25c.448-7.777 3.428-7.895 7.77-.306 3.177 5.552 3.182 5.556 8.075 5.556h4.897l-3.419-5.676-3.419-5.676 2.949-3.359c5.222-5.948 3.315-15.985-3.585-18.868-2.088-.872-6.89-1.421-12.434-1.421H270v17.5m45 0V247h9v-35h-9v17.5M137 224v5h4.8c5.281 0 7.2-1.237 7.2-4.643 0-3.01-3.603-5.357-8.223-5.357H137v5m141 0v5h4.429c6.903 0 9.64-3.931 5.571-8-1.333-1.333-3.333-2-6-2h-4v5m76.5-4.055c-10.482 4.291-6.413 21.246 4.74 19.75 4.718-.633 8.314-3.713 9.136-7.827 1.576-7.878-6.598-14.901-13.876-11.923m-259.906 8.733C92.442 234.993 92.445 235 97 235c4.619 0 4.526.251 2.265-6.116-2.149-6.05-2.672-6.074-4.671-.206M69 268v8h181v-16H69v8" fill-rule="evenodd"/></svg>