<svg xmlns="http://www.w3.org/2000/svg" viewBox="0 0 415 135"><path d="M209.543 45.931c-.317.512-.193 1.167.274 1.456.467.289.85-.13.85-.931 0-1.686-.316-1.833-1.124-.525m2.06 3.902c-.283.459.12.834.897.834s1.18-.375.897-.834c-.283-.458-.687-.833-.897-.833-.21 0-.614.375-.897.833m-62.79 1.85c.721.289 1.584.253 1.916-.079.332-.332-.258-.568-1.312-.525-1.165.048-1.402.285-.604.604m8.27.578c.23.143 1.542 1.156 2.917 2.25l2.5 1.989-1.905-2.25c-1.048-1.237-2.36-2.25-2.917-2.25-.556 0-.824.117-.595.261M63 67.559c0 .857.457 1.276 1.016.931.559-.346.758-1.047.441-1.559C63.6 65.544 63 65.802 63 67.559M311.588 74c.485.825.888 1.8.897 2.167.008.366.319.97.69 1.341.371.372.569-.046.44-.926-.129-.881-.837-2.16-1.572-2.842-1.083-1.005-1.169-.956-.455.26M94.813 93.683c.721.289 1.584.253 1.916-.079.332-.332-.258-.568-1.312-.525-1.165.048-1.402.285-.604.604" fill-rule="evenodd"/></svg>